<svg width="40" height="40" viewBox="0 0 40 40" fill="none" xmlns="http://www.w3.org/2000/svg">
<path d="M18.666 38.6667C18.666 39.403 18.0691 40 17.3327 40L1.3325 40C0.596107 40 -0.000852533 39.403 -0.000852468 38.6667L-0.000851769 30.6667C-0.000851318 25.512 4.17787 21.3333 9.33258 21.3333C14.4873 21.3333 18.666 25.512 18.666 30.6667L18.666 38.6667Z" fill="#09884D"/>
<path d="M9.33259 -4.07972e-07C14.4873 -1.82656e-07 18.666 4.17867 18.666 9.33332C18.666 14.488 14.4873 18.6666 9.33258 18.6666L1.3325 18.6666C0.596114 18.6666 -0.000845745 18.0697 -0.000845713 17.3333L-0.000845014 1.33333C-0.000844982 0.596953 0.596115 -7.89851e-07 1.3325 -7.57663e-07L9.33259 -4.07972e-07Z" fill="#09884D"/>
<path d="M30.6655 40C25.5108 40 21.332 35.8213 21.332 30.6667C21.332 25.512 25.5108 21.3334 30.6655 21.3334L37.3322 21.3334C38.805 21.3334 39.9989 22.5273 39.9989 24L39.9989 37.3333C39.9989 38.8061 38.805 40 37.3322 40L30.6655 40Z" fill="#09884D"/>
<path d="M21.332 1.33333C21.332 0.596954 21.929 0 22.6654 0H38.6655C39.4019 0 39.9989 0.596953 39.9989 1.33333V9.33333C39.9989 14.488 35.8202 18.6667 30.6655 18.6667C25.5108 18.6667 21.332 14.488 21.332 9.33333V1.33333Z" fill="#09884D"/>
</svg>
